<svg width="16" height="18" viewBox="0 0 16 18" fill="none" xmlns="http://www.w3.org/2000/svg">
<path d="M14.25 2.1875H12.6875V1.875C12.6875 1.62636 12.5887 1.3879 12.4129 1.21209C12.2371 1.03627 11.9986 0.9375 11.75 0.9375C11.5014 0.9375 11.2629 1.03627 11.0871 1.21209C10.9113 1.3879 10.8125 1.62636 10.8125 1.875V2.1875H5.1875V1.875C5.1875 1.62636 5.08873 1.3879 4.91291 1.21209C4.7371 1.03627 4.49864 0.9375 4.25 0.9375C4.00136 0.9375 3.7629 1.03627 3.58709 1.21209C3.41127 1.3879 3.3125 1.62636 3.3125 1.875V2.1875H1.75C1.3356 2.1875 0.938171 2.35212 0.645146 2.64515C0.35212 2.93817 0.1875 3.3356 0.1875 3.75V16.25C0.1875 16.6644 0.35212 17.0618 0.645146 17.3549C0.938171 17.6479 1.3356 17.8125 1.75 17.8125H14.25C14.6644 17.8125 15.0618 17.6479 15.3549 17.3549C15.6479 17.0618 15.8125 16.6644 15.8125 16.25V3.75C15.8125 3.3356 15.6479 2.93817 15.3549 2.64515C15.0618 2.35212 14.6644 2.1875 14.25 2.1875ZM3.3125 4.0625C3.3125 4.31114 3.41127 4.5496 3.58709 4.72541C3.7629 4.90123 4.00136 5 4.25 5C4.49864 5 4.7371 4.90123 4.91291 4.72541C5.08873 4.5496 5.1875 4.31114 5.1875 4.0625H10.8125C10.8125 4.31114 10.9113 4.5496 11.0871 4.72541C11.2629 4.90123 11.5014 5 11.75 5C11.9986 5 12.2371 4.90123 12.4129 4.72541C12.5887 4.5496 12.6875 4.31114 12.6875 4.0625H13.9375V5.9375H2.0625V4.0625H3.3125ZM2.0625 15.9375V7.8125H13.9375V15.9375H2.0625Z" fill="#393757"/>
</svg>
